<svg xmlns="http://www.w3.org/2000/svg" viewBox="0 0 32 32" fill="none">
  <rect width="32" height="32" rx="8" fill="#0A7E52"/>
  <path d="M16 6C14.2 6 12.5 6.8 11.4 8.2C10.3 9.6 10 11.4 10.5 13C8.8 13.2 7.3 14.2 6.5 15.7C5.7 17.2 5.8 19 6.7 20.4C7.6 21.8 9.2 22.6 10.8 22.5H21.2C22.8 22.6 24.4 21.8 25.3 20.4C26.2 19 26.3 17.2 25.5 15.7C24.7 14.2 23.2 13.2 21.5 13C22 11.4 21.7 9.6 20.6 8.2C19.5 6.8 17.8 6 16 6Z" fill="white" opacity="0.9"/>
  <path d="M16 24V16M13 19L16 16L19 19" stroke="white" stroke-width="1.5" stroke-linecap="round" stroke-linejoin="round"/>
</svg>
